<mxfile host="app.diagrams.net" modified="2023-05-23T12:44:31.962Z" agent="Mozilla/5.0 (Windows NT 10.0; Win64; x64) AppleWebKit/537.36 (KHTML, like Gecko) Chrome/113.0.0.0 Safari/537.36 Edg/113.0.1774.42" etag="fo7N_eY_M3DzxEsOb8eb" version="21.3.2" type="github">
  <diagram name="PÃ¡gina-1" id="pTtt9XOtO2MkydMWX9lj">
    <mxGraphModel dx="794" dy="516" grid="1" gridSize="10" guides="1" tooltips="1" connect="1" arrows="1" fold="1" page="1" pageScale="1" pageWidth="827" pageHeight="1169" math="0" shadow="0">
      <root>
        <mxCell id="0" />
        <mxCell id="1" parent="0" />
        <mxCell id="ydqCATZEW2ovKTzyd2Hw-6" value="" style="edgeStyle=orthogonalEdgeStyle;rounded=0;orthogonalLoop=1;jettySize=auto;html=1;" edge="1" parent="1" source="ydqCATZEW2ovKTzyd2Hw-1" target="ydqCATZEW2ovKTzyd2Hw-5">
          <mxGeometry relative="1" as="geometry" />
        </mxCell>
        <mxCell id="ydqCATZEW2ovKTzyd2Hw-1" value="" style="rounded=0;whiteSpace=wrap;html=1;" vertex="1" parent="1">
          <mxGeometry x="350" y="160" width="120" height="60" as="geometry" />
        </mxCell>
        <mxCell id="ydqCATZEW2ovKTzyd2Hw-4" style="edgeStyle=orthogonalEdgeStyle;rounded=0;orthogonalLoop=1;jettySize=auto;html=1;entryX=0.5;entryY=0;entryDx=0;entryDy=0;" edge="1" parent="1" source="ydqCATZEW2ovKTzyd2Hw-2" target="ydqCATZEW2ovKTzyd2Hw-1">
          <mxGeometry relative="1" as="geometry" />
        </mxCell>
        <mxCell id="ydqCATZEW2ovKTzyd2Hw-2" value="" style="ellipse;whiteSpace=wrap;html=1;" vertex="1" parent="1">
          <mxGeometry x="350" y="50" width="120" height="80" as="geometry" />
        </mxCell>
        <mxCell id="ydqCATZEW2ovKTzyd2Hw-5" value="" style="whiteSpace=wrap;html=1;rounded=0;" vertex="1" parent="1">
          <mxGeometry x="350" y="300" width="120" height="60" as="geometry" />
        </mxCell>
      </root>
    </mxGraphModel>
  </diagram>
</mxfile>
